# xmcd
#
# Track frame offsets: 
#        180
#        18836
#        59932
#        76296
#        111534
#        124487
#        136233
#        159636
#        181000
#        213116
#        232726
#        274000
#        286801
#        303289
#
# Disc length: 4226 seconds
#
# Revision: 1
# Processed by: cddbd v1.5.2PL0 Copyright (c) Steve Scherf et al.
# Submitted via: ExactAudioCopy v0.95b4
#
DISCID=bf10800e
DTITLE=Stevie Ray Vaughan And Double Trouble - Austin City - Missing H
DTITLE=earts - Volume 3
DYEAR=1900
DGENRE=Blues
TTITLE0=01 Pride and Joy
TTITLE1=02 Texas Flood
TTITLE2=03 Rude Mood
TTITLE3=04 Voodoo Chile
TTITLE4=05 Love Struck
TTITLE5=06 The House Is A Rockin'
TTITLE6=07 Tight Rope
TTITLE7=08 Leave  My Little Girl Alone
TTITLE8=09 Cold Shot
TTITLE9=10 Crossfire
TTITLE10=11 Riviera Paradise
TTITLE11=12 Rude Mood (Acoustic)
TTITLE12=13 Pride and Job (Acoustic)
TTITLE13=14 Testify (Acoustic)
EXTD=ID3G: 0
EXTT0=
EXTT1=
EXTT2=
EXTT3=
EXTT4=
EXTT5=
EXTT6=
EXTT7=
EXTT8=
EXTT9=
EXTT10=
EXTT11=
EXTT12=
EXTT13=
PLAYORDER=
